<svg width="20" height="20" viewBox="0 0 20 20" fill="none" xmlns="http://www.w3.org/2000/svg">
<path d="M9.85425 12.6809H10.1457C11.7489 12.6809 13.1091 11.6541 13.5878 10.2303C13.6573 10.023 13.4982 9.80938 13.2779 9.80938H12.3802C12.0944 9.80938 11.8635 9.58137 11.8635 9.29996C11.8635 9.01775 12.0944 8.78895 12.3802 8.78895H13.2504C13.5386 8.78895 13.7719 8.55855 13.7719 8.27395C13.7719 7.98934 13.5386 7.75895 13.2504 7.75895H12.3802C12.0944 7.75895 11.8635 7.53015 11.8635 7.24873C11.8635 6.96652 12.0944 6.73772 12.3802 6.73772H13.2504C13.5386 6.73772 13.7719 6.50733 13.7719 6.22272C13.7719 5.93812 13.5386 5.70772 13.2504 5.70772H12.3802C12.0944 5.70772 11.8635 5.47892 11.8635 5.19671C11.8635 4.91529 12.0944 4.68649 12.3802 4.68649H13.3239C13.5402 4.68649 13.6952 4.48241 13.6371 4.27593C13.2084 2.77 11.8078 1.66666 10.1457 1.66666H9.85425C7.85143 1.66666 6.22803 3.26905 6.22803 5.24773V9.09986C6.22803 11.0777 7.85143 12.6809 9.85425 12.6809Z" fill="white"/>
<path opacity="0.4" d="M16.276 8.18802C15.8304 8.18802 15.4688 8.54437 15.4688 8.98523C15.4688 11.9628 13.0155 14.3855 10.0004 14.3855C6.98443 14.3855 4.53115 11.9628 4.53115 8.98523C4.53115 8.54437 4.1695 8.18802 3.72389 8.18802C3.27828 8.18802 2.91663 8.54437 2.91663 8.98523C2.91663 12.5727 5.66617 15.5343 9.1931 15.9321V17.5361C9.1931 17.9762 9.55395 18.3333 10.0004 18.3333C10.446 18.3333 10.8076 17.9762 10.8076 17.5361V15.9321C14.3338 15.5343 17.0833 12.5727 17.0833 8.98523C17.0833 8.54437 16.7216 8.18802 16.276 8.18802Z" fill="white"/>
</svg>
