<svg width="20" height="20" viewBox="0 0 20 20" fill="none" xmlns="http://www.w3.org/2000/svg">
<path opacity="0.4" d="M10.0166 1.66666C5.17496 1.66666 1.66663 5.61666 1.66663 9.99999C1.66663 11.4 2.07496 12.8417 2.79163 14.1583C2.92496 14.375 2.94163 14.65 2.84996 14.9083L2.29163 16.775C2.16663 17.225 2.54996 17.5583 2.97496 17.425L4.65829 16.925C5.11663 16.775 5.47496 16.9667 5.90079 17.225C7.11746 17.9417 8.63329 18.3083 9.99996 18.3083C14.1333 18.3083 18.3333 15.1167 18.3333 9.97499C18.3333 5.54166 14.75 1.66666 10.0166 1.66666Z" fill="white"/>
<path fill-rule="evenodd" clip-rule="evenodd" d="M9.9837 11.0751C9.39203 11.0668 8.91703 10.5918 8.91703 10.0001C8.91703 9.41676 9.40037 8.93342 9.9837 8.94176C10.5754 8.94176 11.0504 9.41676 11.0504 10.0084C11.0504 10.5918 10.5754 11.0751 9.9837 11.0751ZM6.14174 11.0751C5.55841 11.0751 5.07507 10.5918 5.07507 10.0084C5.07507 9.41678 5.55007 8.94178 6.14174 8.94178C6.73341 8.94178 7.20841 9.41678 7.20841 10.0084C7.20841 10.5918 6.73341 11.0668 6.14174 11.0751ZM12.7586 10.0084C12.7586 10.5918 13.2336 11.0751 13.8253 11.0751C14.4169 11.0751 14.8919 10.5918 14.8919 10.0084C14.8919 9.41675 14.4169 8.94175 13.8253 8.94175C13.2336 8.94175 12.7586 9.41675 12.7586 10.0084Z" fill="white"/>
</svg>
