<svg width="24" height="25" viewBox="0 0 24 25" fill="none" xmlns="http://www.w3.org/2000/svg">
<path d="M19 2.5H5C3.89543 2.5 3 3.39543 3 4.5V20.6994C3 21.8008 4.14741 22.5266 5.14262 22.0548L7.16507 21.0959C7.69479 20.8447 8.30803 20.8386 8.84263 21.0792L11.1793 22.1307C11.7012 22.3655 12.2988 22.3655 12.8207 22.1307L15.1574 21.0792C15.692 20.8386 16.3052 20.8447 16.8349 21.0959L18.8574 22.0548C19.8526 22.5266 21 21.8008 21 20.6994V4.5C21 3.39543 20.1046 2.5 19 2.5Z" fill="white"/>
<path fill-rule="evenodd" clip-rule="evenodd" d="M7.25 7.5C7.25 7.08579 7.58579 6.75 8 6.75H12C12.4142 6.75 12.75 7.08579 12.75 7.5C12.75 7.91421 12.4142 8.25 12 8.25H8C7.58579 8.25 7.25 7.91421 7.25 7.5ZM7.25 11.5C7.25 11.0858 7.58579 10.75 8 10.75H16C16.4142 10.75 16.75 11.0858 16.75 11.5C16.75 11.9142 16.4142 12.25 16 12.25H8C7.58579 12.25 7.25 11.9142 7.25 11.5ZM7.25 15.5C7.25 15.0858 7.58579 14.75 8 14.75H16C16.4142 14.75 16.75 15.0858 16.75 15.5C16.75 15.9142 16.4142 16.25 16 16.25H8C7.58579 16.25 7.25 15.9142 7.25 15.5Z" fill="#6CC8FD"/>
</svg>
